<svg width="16" height="30" viewBox="0 0 16 30" fill="none" xmlns="http://www.w3.org/2000/svg">
    <path d="M13.6988 13.0263L13.0486 12.9161C12.9907 12.7549 12.9253 12.5969 12.853 12.4431L13.2358 11.9075C13.569 11.4394 13.5155 10.8073 13.1099 10.4057L12.3286 9.62425C12.1077 9.40341 11.815 9.28175 11.5043 9.28175C11.2596 9.28175 11.0257 9.35712 10.8293 9.49842L10.2916 9.88141C10.1253 9.80275 9.95653 9.73331 9.78665 9.67329L9.67913 9.03618C9.58453 8.47192 9.10052 8.0625 8.5282 8.0625H7.4243C6.8521 8.0625 6.36813 8.47195 6.27373 9.03512L6.16071 9.69714C6.00111 9.75545 5.84374 9.82165 5.68962 9.89561L5.16167 9.51536C4.96372 9.37285 4.72883 9.29757 4.48235 9.29757C4.16863 9.29757 3.87577 9.41943 3.65736 9.64078L2.87418 10.4214C2.46972 10.8259 2.41673 11.4575 2.74825 11.9232L3.13735 12.4699C3.06563 12.6242 3.00113 12.783 2.94417 12.945L2.30697 13.0525C1.7428 13.1473 1.33337 13.6313 1.33337 14.2035V15.3074C1.33337 15.8796 1.74282 16.3636 2.30599 16.4581L2.96801 16.571C3.0263 16.7308 3.09263 16.8882 3.16647 17.0422L2.78765 17.5692C2.45451 18.0372 2.50801 18.6694 2.91359 19.0709L3.69493 19.8524C3.91578 20.0732 4.20854 20.1949 4.51921 20.1949C4.76386 20.1949 4.99783 20.1195 5.19405 19.9783L5.74073 19.5892C5.88436 19.656 6.03328 19.7171 6.18618 19.7721L6.29452 20.4222C6.38922 20.9864 6.87323 21.3958 7.44544 21.3958H8.55193C9.12413 21.3958 9.60828 20.9864 9.70276 20.4229L9.81303 19.7726C9.97416 19.7148 10.1322 19.6493 10.286 19.577L10.8199 19.9587C11.0179 20.1012 11.2527 20.1766 11.4992 20.1766C11.8098 20.1766 12.1026 20.0549 12.3234 19.8341L13.1047 19.0526C13.5093 18.6482 13.5622 18.0165 13.2307 17.5509L12.8474 17.0126C12.9216 16.8554 12.9873 16.6974 13.0437 16.5403L13.693 16.4321C14.2572 16.3374 14.6666 15.8534 14.6666 15.2812V14.1795C14.673 13.6067 14.2665 13.1221 13.6989 13.0264L13.6988 13.0263ZM13.8853 15.2811C13.8853 15.4702 13.75 15.6302 13.564 15.6614L12.7028 15.805C12.5439 15.8314 12.4157 15.9435 12.368 16.0976C12.2915 16.3455 12.1864 16.5989 12.0559 16.8504C11.9821 16.9922 11.9939 17.1612 12.0867 17.2912L12.5942 18.0038C12.7036 18.1577 12.686 18.3664 12.5522 18.5002L11.7709 19.2815C11.6965 19.3558 11.6025 19.3952 11.4991 19.3952C11.4175 19.3952 11.3405 19.3708 11.2752 19.3239L10.5656 18.8167C10.4351 18.723 10.2654 18.7112 10.1229 18.7857C9.88421 18.9106 9.63061 19.0157 9.36908 19.0978C9.21649 19.1456 9.10511 19.2734 9.07855 19.4307L8.93227 20.2928C8.90104 20.4793 8.74103 20.6145 8.55182 20.6145H7.44534C7.25613 20.6145 7.09622 20.4793 7.06498 20.2933L6.92145 19.4321C6.8952 19.2742 6.78411 19.1462 6.63153 19.098C6.37376 19.0166 6.1283 18.9157 5.90176 18.798C5.84001 18.766 5.77318 18.7502 5.70665 18.7502C5.62059 18.7502 5.53493 18.7766 5.46159 18.8289L4.73924 19.343C4.67413 19.3899 4.60007 19.4136 4.51911 19.4136C4.41565 19.4136 4.32166 19.3743 4.24729 19.2999L3.46453 18.5171C3.33096 18.3849 3.31398 18.1768 3.42292 18.0237L3.92737 17.322C4.02228 17.1902 4.03388 17.0194 3.95738 16.8756C3.8291 16.635 3.7228 16.3828 3.64132 16.1257C3.5931 15.9741 3.46584 15.8634 3.30919 15.8366L2.43619 15.6878C2.24983 15.6564 2.11454 15.4964 2.11454 15.3073V14.2034C2.11454 14.0143 2.24983 13.8543 2.4365 13.823L3.28713 13.6794C3.44612 13.6527 3.57419 13.5403 3.6215 13.3857C3.70176 13.123 3.80501 12.869 3.9284 12.631C4.00185 12.4895 3.99005 12.3209 3.89758 12.1908L3.38468 11.4702C3.27513 11.3164 3.29273 11.1076 3.42609 10.9743L4.21008 10.1929L4.21293 10.1903C4.28342 10.1185 4.37904 10.0791 4.48229 10.0791C4.56388 10.0791 4.64099 10.1035 4.70507 10.1497L5.40982 10.657C5.54176 10.752 5.71286 10.7634 5.85609 10.6868C6.09667 10.5585 6.34895 10.4522 6.6057 10.3709C6.75727 10.3228 6.86805 10.1957 6.89501 10.0386L7.04393 9.16563C7.07516 8.97927 7.23517 8.84398 7.42438 8.84398H8.52829C8.7174 8.84398 8.8774 8.97927 8.90874 9.16593L9.05227 10.0169C9.07913 10.176 9.19174 10.3039 9.34646 10.3511C9.61024 10.4313 9.87329 10.5395 10.1285 10.673C10.2703 10.747 10.4393 10.7355 10.5699 10.6426L11.2842 10.1339C11.3492 10.0869 11.4233 10.0633 11.5043 10.0633C11.6077 10.0633 11.7017 10.1026 11.7762 10.177L12.5588 10.9597C12.6924 11.0919 12.7095 11.3001 12.5998 11.454L12.0921 12.1643C11.9989 12.2949 11.9873 12.4644 12.0617 12.6064C12.1867 12.8451 12.2917 13.0987 12.3739 13.3603C12.4218 13.5129 12.5495 13.6242 12.7067 13.6507L13.5681 13.7969L13.5689 13.797C13.7547 13.8282 13.8879 13.9859 13.8852 14.172L13.8853 15.2811Z" fill="#5068A5"/>
    <path d="M7.99859 12.1354C6.56918 12.1354 5.40625 13.2983 5.40625 14.7277C5.40625 16.1571 6.56918 17.3201 7.99859 17.3201C9.428 17.3201 10.5909 16.1571 10.5909 14.7277C10.5909 13.2983 9.428 12.1354 7.99859 12.1354ZM7.99859 16.5388C6.99993 16.5388 6.18749 15.7263 6.18749 14.7277C6.18749 13.7291 6.99996 12.9166 7.99859 12.9166C8.99725 12.9166 9.80969 13.7291 9.80969 14.7277C9.80969 15.7264 8.99721 16.5388 7.99859 16.5388Z" fill="#5068A5"/>
</svg>
