<svg width="32" height="32" viewBox="0 0 32 32" fill="none" xmlns="http://www.w3.org/2000/svg">
    <circle cx="16" cy="16" r="15.5" stroke="#717B9E" stroke-opacity="0.2"/>
    <path d="M15.625 12.7812C13.625 12.7812 12.0312 14.4062 12.0312 16.375C12.0312 18.375 13.625 19.9688 15.625 19.9688C17.5938 19.9688 19.2188 18.375 19.2188 16.375C19.2188 14.4062 17.5938 12.7812 15.625 12.7812ZM15.625 18.7188C14.3438 18.7188 13.2812 17.6875 13.2812 16.375C13.2812 15.0938 14.3125 14.0625 15.625 14.0625C16.9062 14.0625 17.9375 15.0938 17.9375 16.375C17.9375 17.6875 16.9062 18.7188 15.625 18.7188ZM20.1875 12.6562C20.1875 12.1875 19.8125 11.8125 19.3438 11.8125C18.875 11.8125 18.5 12.1875 18.5 12.6562C18.5 13.125 18.875 13.5 19.3438 13.5C19.8125 13.5 20.1875 13.125 20.1875 12.6562ZM22.5625 13.5C22.5 12.375 22.25 11.375 21.4375 10.5625C20.625 9.75 19.625 9.5 18.5 9.4375C17.3438 9.375 13.875 9.375 12.7188 9.4375C11.5938 9.5 10.625 9.75 9.78125 10.5625C8.96875 11.375 8.71875 12.375 8.65625 13.5C8.59375 14.6562 8.59375 18.125 8.65625 19.2812C8.71875 20.4062 8.96875 21.375 9.78125 22.2188C10.625 23.0312 11.5938 23.2812 12.7188 23.3438C13.875 23.4062 17.3438 23.4062 18.5 23.3438C19.625 23.2812 20.625 23.0312 21.4375 22.2188C22.25 21.375 22.5 20.4062 22.5625 19.2812C22.625 18.125 22.625 14.6562 22.5625 13.5ZM21.0625 20.5C20.8438 21.125 20.3438 21.5938 19.75 21.8438C18.8125 22.2188 16.625 22.125 15.625 22.125C14.5938 22.125 12.4062 22.2188 11.5 21.8438C10.875 21.5938 10.4062 21.125 10.1562 20.5C9.78125 19.5938 9.875 17.4062 9.875 16.375C9.875 15.375 9.78125 13.1875 10.1562 12.25C10.4062 11.6562 10.875 11.1875 11.5 10.9375C12.4062 10.5625 14.5938 10.6562 15.625 10.6562C16.625 10.6562 18.8125 10.5625 19.75 10.9375C20.3438 11.1562 20.8125 11.6562 21.0625 12.25C21.4375 13.1875 21.3438 15.375 21.3438 16.375C21.3438 17.4062 21.4375 19.5938 21.0625 20.5Z" fill="url(#paint0_linear_1_9174)"/>
    <defs>
        <linearGradient id="paint0_linear_1_9174" x1="17.726" y1="33.8295" x2="37.6023" y2="14.2409" gradientUnits="userSpaceOnUse">
            <stop stop-color="white"/>
            <stop offset="0.147864" stop-color="#F6640E"/>
            <stop offset="0.443974" stop-color="#BA03A7"/>
            <stop offset="0.733337" stop-color="#6A01B9"/>
            <stop offset="1" stop-color="#6B01B9"/>
        </linearGradient>
    </defs>
</svg>
