<svg width="32" height="32" viewBox="0 0 32 32" fill="none" xmlns="http://www.w3.org/2000/svg">
    <circle cx="16" cy="16" r="15.5" stroke="#717B9E" stroke-opacity="0.2"/>
    <path d="M22.5376 18.9496C22.5376 18.8965 22.4846 18.8965 22.4846 18.8435C22.2724 18.4191 21.7949 17.8886 21.1583 17.305C20.84 17.0398 20.6809 16.8276 20.5747 16.7215C20.4156 16.5093 20.4156 16.3501 20.4687 16.1379C20.5217 15.9788 20.7339 15.7135 21.1053 15.2361C21.3175 14.9708 21.4235 14.8117 21.5827 14.6525C22.3785 13.5915 22.7498 12.9018 22.6437 12.5835L22.5907 12.5305C22.5376 12.4775 22.4846 12.4244 22.3785 12.4244C22.2724 12.3714 22.1132 12.3714 21.9541 12.4244H19.9382C19.8851 12.4244 19.8851 12.4244 19.779 12.4244C19.7259 12.4244 19.6729 12.4244 19.6729 12.4244H19.6199H19.5668L19.5137 12.4774C19.4607 12.5305 19.4607 12.5305 19.4607 12.5835C19.2485 13.1671 18.9832 13.6445 18.718 14.1751C18.5588 14.4403 18.3997 14.7056 18.2405 14.9178C18.0814 15.13 17.9753 15.2891 17.8692 15.3952C17.7631 15.5013 17.657 15.5544 17.6039 15.6605C17.5509 15.7135 17.4448 15.7666 17.4448 15.7135C17.3917 15.7135 17.3387 15.7135 17.3387 15.6605C17.2856 15.6074 17.2326 15.5544 17.1795 15.5013C17.1265 15.4483 17.1265 15.3422 17.0734 15.2361C17.0734 15.13 17.0734 15.0239 17.0734 14.9708C17.0734 14.9178 17.0734 14.7586 17.0734 14.6525C17.0734 14.4934 17.0734 14.3873 17.0734 14.3342C17.0734 14.1751 17.0734 13.9629 17.0734 13.7507C17.0734 13.5385 17.0734 13.3793 17.0734 13.2732C17.0734 13.1671 17.0734 13.008 17.0734 12.9019C17.0734 12.7427 17.0734 12.6366 17.0734 12.5835C17.0734 12.5305 17.0204 12.4244 17.0204 12.3713C16.9674 12.3183 16.9143 12.2652 16.8612 12.2122C16.8082 12.1591 16.7021 12.1591 16.649 12.1061C16.3838 12.053 16.0655 12 15.6941 12C14.8453 12 14.2618 12.0531 14.0496 12.1592C13.9435 12.2122 13.8374 12.2652 13.7843 12.3713C13.6782 12.4774 13.6782 12.5305 13.7313 12.5305C13.9965 12.5836 14.2087 12.6896 14.3148 12.8488L14.3679 12.9549C14.4209 13.008 14.4209 13.114 14.474 13.2732C14.527 13.4323 14.527 13.5915 14.527 13.8037C14.527 14.122 14.527 14.4403 14.527 14.6525C14.527 14.9178 14.474 15.0769 14.474 15.2361C14.474 15.3952 14.4209 15.5013 14.3679 15.5544C14.3148 15.6605 14.3148 15.7135 14.2618 15.7135C14.2618 15.7135 14.2618 15.7666 14.2087 15.7666C14.1557 15.7666 14.1026 15.8196 13.9965 15.8196C13.9435 15.8196 13.8374 15.7666 13.7843 15.7135C13.6782 15.6605 13.5721 15.5544 13.5191 15.4483C13.413 15.3422 13.3069 15.183 13.2008 14.9708C13.0947 14.7586 12.9355 14.5464 12.8294 14.2281L12.7233 14.0159C12.6703 13.9098 12.5642 13.6976 12.4581 13.4324C12.352 13.1671 12.2459 12.9549 12.1398 12.6897C12.0867 12.5836 12.0337 12.5305 11.9806 12.4774H11.9276C11.9276 12.4774 11.8745 12.4244 11.8215 12.4244C11.7684 12.4244 11.7154 12.3713 11.6623 12.3713H9.75253C9.54033 12.3713 9.43423 12.4244 9.38118 12.4774L9.32812 12.5305C9.32812 12.5305 9.32812 12.5835 9.32812 12.6366C9.32812 12.6896 9.32813 12.7427 9.38118 12.8488C9.64643 13.4854 9.96473 14.122 10.283 14.7586C10.6013 15.3422 10.9196 15.8727 11.1318 16.244C11.3971 16.6154 11.6093 16.9867 11.8745 17.305C12.1398 17.6233 12.2989 17.8355 12.352 17.9416C12.4581 18.0477 12.5111 18.1008 12.5642 18.1538L12.7233 18.313C12.8294 18.4191 12.9886 18.5782 13.2008 18.7374C13.413 18.8965 13.6782 19.0557 13.9435 19.2148C14.2087 19.374 14.527 19.4801 14.8453 19.5862C15.2167 19.6923 15.535 19.7453 15.8533 19.6923H16.649C16.8082 19.6923 16.9143 19.6392 17.0204 19.5331L17.0734 19.4801C17.0734 19.427 17.1265 19.427 17.1265 19.374C17.1265 19.3209 17.1265 19.2679 17.1265 19.1618C17.1265 18.9496 17.1265 18.7904 17.1795 18.6313C17.2326 18.4721 17.2326 18.366 17.2857 18.2599C17.3387 18.1538 17.3917 18.1008 17.4448 18.0477C17.4978 17.9947 17.5509 17.9416 17.5509 17.9416H17.6039C17.71 17.8886 17.8692 17.9416 17.9753 18.0477C18.1344 18.1538 18.2936 18.313 18.3997 18.4721C18.5058 18.6313 18.665 18.7904 18.8772 19.0026C19.0894 19.2148 19.2485 19.374 19.3546 19.427L19.5137 19.5331C19.6198 19.5862 19.726 19.6392 19.8851 19.6923C20.0443 19.7453 20.1503 19.7453 20.2564 19.7453L22.0602 19.6923C22.2193 19.6923 22.3785 19.6392 22.4846 19.5862C22.5907 19.5331 22.6437 19.4801 22.6437 19.374C22.6437 19.3209 22.6437 19.2148 22.6437 19.1618C22.5376 19.0557 22.5376 19.0026 22.5376 18.9496Z" fill="#7294C7"/>
</svg>
