<svg width="32" height="32" viewBox="0 0 32 32" fill="none" xmlns="http://www.w3.org/2000/svg">
    <circle cx="16" cy="16" r="15.5" stroke="#717B9E" stroke-opacity="0.2"/>
    <path d="M9.56193 16.2507L12.6273 17.3937L13.8223 21.2384C13.8743 21.4982 14.186 21.5502 14.3938 21.3943L16.1083 19.9915C16.2642 19.8356 16.524 19.8356 16.7318 19.9915L19.7972 22.2256C20.005 22.3815 20.3168 22.2775 20.3687 22.0178L22.6548 11.1071C22.7067 10.8473 22.447 10.5875 22.1872 10.6914L9.56193 15.5753C9.25019 15.6792 9.25019 16.1468 9.56193 16.2507ZM13.6664 16.8222L19.6933 13.1333C19.7972 13.0814 19.9011 13.2373 19.7972 13.2892L14.8614 17.9133C14.7055 18.0691 14.5497 18.277 14.5497 18.5367L14.3938 19.7837C14.3938 19.9395 14.134 19.9915 14.0821 19.7837L13.4586 17.4976C13.3027 17.2378 13.4067 16.9261 13.6664 16.8222Z" fill="#2F80ED"/>
</svg>
